<?xml version="1.0" encoding="UTF-8"?> <!-- Generator: Adobe Illustrator 20.0.0, SVG Export Plug-In . SVG Version: 6.00 Build 0) --> <svg xmlns="http://www.w3.org/2000/svg" xmlns:xlink="http://www.w3.org/1999/xlink" id="Шар_1" x="0px" y="0px" viewBox="0 0 283.5 141.7" style="enable-background:new 0 0 283.5 141.7;" xml:space="preserve"> <style type="text/css"> .st0{fill:#FFFFFF;} </style> <g> <g> <path class="st0" d="M26.5,28.5l11.2,34.9l11.2-34.9h6.9v42.7h-5.4V54.5l0.5-16.7L39.7,71.2h-4.1L24.5,38L25,54.5v16.6h-5.4V28.5 H26.5z"></path> <path class="st0" d="M88.5,51.4H73.4v15.1H91v4.6H68V28.5h22.7v4.6H73.4v13.8h15.1V51.4z"></path> <path class="st0" d="M127.6,57.6c-0.2,4.6-1.5,8.1-3.9,10.5s-5.6,3.7-9.9,3.7c-4.3,0-7.7-1.6-10.2-4.9c-2.5-3.3-3.8-7.7-3.8-13.2 v-7.7c0-5.6,1.3-9.9,3.9-13.2c2.6-3.2,6.1-4.8,10.6-4.8c4.1,0,7.3,1.2,9.6,3.7c2.3,2.5,3.5,6,3.7,10.6h-5.4c-0.2-3.5-1-6-2.2-7.5 s-3.1-2.2-5.6-2.2c-2.9,0-5.2,1.1-6.7,3.4c-1.6,2.3-2.3,5.6-2.3,10v7.8c0,4.3,0.7,7.6,2.2,9.9c1.5,2.3,3.6,3.5,6.4,3.5 c2.8,0,4.8-0.7,6-2.1c1.2-1.4,2-3.9,2.3-7.5H127.6z"></path> <path class="st0" d="M147.5,51.5l-4.2,5.1v14.6h-5.4V28.5h5.4v20.6l3.5-4.7l11.5-16h6.5l-13.9,18.8l15,23.9h-6.4L147.5,51.5z"></path> <path class="st0" d="M194.2,51.4H179v15.1h17.6v4.6h-23V28.5h22.7v4.6H179v13.8h15.1V51.4z"></path> <path class="st0" d="M217.6,49.9l8.7-21.5h6.1l-12.1,26.8v15.9h-5.4V55.2l-12.1-26.8h6.1L217.6,49.9z"></path> <path class="st0" d="M259.2,60.4c0-2.1-0.6-3.8-1.7-4.9s-3.2-2.2-6.2-3.3c-3-1.1-5.3-2.2-6.9-3.4c-1.6-1.2-2.8-2.5-3.6-4 c-0.8-1.5-1.2-3.3-1.2-5.2c0-3.4,1.1-6.2,3.4-8.4c2.3-2.2,5.2-3.3,8.9-3.3c2.5,0,4.7,0.6,6.7,1.7c2,1.1,3.5,2.7,4.5,4.7 c1.1,2,1.6,4.2,1.6,6.6h-5.4c0-2.6-0.6-4.7-1.9-6.1c-1.3-1.4-3.1-2.2-5.5-2.2c-2.2,0-3.9,0.6-5,1.8c-1.2,1.2-1.8,2.9-1.8,5.1 c0,1.8,0.6,3.3,1.9,4.5c1.3,1.2,3.3,2.3,6,3.3c4.2,1.4,7.2,3.1,9,5.1c1.8,2,2.7,4.7,2.7,8c0,3.5-1.1,6.2-3.4,8.3 c-2.2,2.1-5.3,3.1-9.2,3.1c-2.5,0-4.8-0.5-6.9-1.6c-2.1-1.1-3.8-2.6-5-4.6c-1.2-2-1.8-4.2-1.8-6.8h5.4c0,2.6,0.7,4.7,2.2,6.2 c1.5,1.5,3.5,2.2,6,2.2c2.4,0,4.1-0.6,5.3-1.8C258.6,64.1,259.2,62.5,259.2,60.4z"></path> </g> <g> <path class="st0" d="M219.1,112.5H41.6c-0.8,0-1.5-0.4-2-1c-0.5-0.6-0.6-1.4-0.4-2.2l3.4-13c0.3-1.1,1.3-1.9,2.4-1.9h170.7 c1.1,0,2.1,0.8,2.4,1.9l3.4,13c0.2,0.8,0,1.5-0.4,2.2C220.6,112.1,219.9,112.5,219.1,112.5z M45,96c-0.5,0-0.8,0.3-1,0.7l-3.4,13 c-0.1,0.3,0,0.6,0.2,0.9c0.2,0.2,0.5,0.4,0.8,0.4h177.5c0.3,0,0.6-0.1,0.8-0.4c0.2-0.2,0.3-0.6,0.2-0.9l-3.4-13 c-0.1-0.4-0.5-0.7-1-0.7H45z"></path> <path class="st0" d="M242.9,112.5h-18.3c-0.8,0-1.5-0.4-2-1c-0.5-0.6-0.6-1.4-0.4-2.2l3.4-13c0.3-1.1,1.3-1.9,2.4-1.9h11.6 c1.1,0,2.1,0.8,2.4,1.9l3.4,13c0.2,0.8,0,1.6-0.4,2.2S243.7,112.5,242.9,112.5z M227.9,96c-0.5,0-0.9,0.3-1,0.8l-3.4,13 c-0.1,0.3,0,0.6,0.2,0.9s0.5,0.4,0.8,0.4h18.3c0.3,0,0.6-0.1,0.8-0.4s0.3-0.6,0.2-0.9l-3.4-13c-0.1-0.4-0.5-0.8-1-0.8H227.9z"></path> <path class="st0" d="M36.2,112.5H17.8c-0.8,0-1.5-0.4-2-1c-0.5-0.6-0.6-1.4-0.4-2.2l3.4-13c0.3-1.1,1.3-1.9,2.4-1.9h11.6 c1.1,0,2.1,0.8,2.4,1.9l3.4,13c0.2,0.8,0,1.6-0.4,2.2C37.7,112.1,37,112.5,36.2,112.5z M21.2,96c-0.5,0-0.9,0.3-1,0.8l-3.4,13 c-0.1,0.3,0,0.6,0.2,0.9c0.2,0.3,0.5,0.4,0.8,0.4h18.3c0.3,0,0.6-0.1,0.8-0.4c0.2-0.3,0.3-0.6,0.2-0.9l-3.4-13 c-0.1-0.4-0.5-0.8-1-0.8H21.2z"></path> <path class="st0" d="M266.7,112.5h-18.3c-0.8,0-1.5-0.4-2-1c-0.5-0.6-0.6-1.4-0.4-2.2l3.4-13c0.3-1.1,1.3-1.9,2.4-1.9h11.6 c1.1,0,2.1,0.8,2.4,1.9l3.4,13c0.2,0.8,0,1.6-0.4,2.2C268.2,112.1,267.5,112.5,266.7,112.5z M251.7,96c-0.5,0-0.9,0.3-1,0.8 l-3.4,13c-0.1,0.3,0,0.6,0.2,0.9c0.2,0.3,0.5,0.4,0.8,0.4h18.3c0.3,0,0.6-0.1,0.8-0.4s0.3-0.6,0.2-0.9l-3.4-13 c-0.1-0.4-0.5-0.8-1-0.8H251.7z"></path> <path class="st0" d="M269.2,119.6H15.3V111h253.9V119.6z M16.8,118.1h250.9v-5.7H16.8V118.1z"></path> </g> </g> </svg> 